<?xml version="1.0" standalone="no"?>
<!DOCTYPE svg PUBLIC "-//W3C//DTD SVG 20010904//EN"
 "http://www.w3.org/TR/2001/REC-SVG-20010904/DTD/svg10.dtd">
<svg version="1.0" xmlns="http://www.w3.org/2000/svg"
 width="1330.000000pt" height="1330.000000pt" viewBox="0 0 1330.000000 1330.000000"
 preserveAspectRatio="xMidYMid meet">

<g transform="translate(0.000000,1330.000000) scale(0.100000,-0.100000)"
fill="#000000" stroke="none">
<path d="M6305 12983 c-1892 -102 -3621 -1037 -4762 -2573 -684 -921 -1096
-2004 -1208 -3180 -22 -228 -30 -712 -16 -940 94 -1503 662 -2843 1668 -3935
845 -916 1928 -1560 3128 -1859 720 -179 1495 -229 2250 -145 572 63 1182 219
1700 433 205 85 600 281 780 386 670 393 1287 930 1778 1547 663 834 1103
1826 1282 2890 109 656 111 1388 5 2059 -167 1049 -619 2077 -1281 2911 -1138
1432 -2768 2285 -4594 2403 -145 9 -581 11 -730 3z m636 -133 c557 -28 1096
-126 1604 -290 161 -52 428 -150 423 -155 -2 -2 -37 6 -78 17 -112 31 -290 30
-390 -1 -140 -43 -267 -124 -354 -224 -37 -43 -43 -47 -39 -26 9 48 -24 195
-60 271 -95 194 -298 320 -561 347 -330 34 -603 -115 -751 -408 l-27 -54 -28
55 c-77 154 -191 271 -330 341 -133 66 -199 81 -350 81 -136 -1 -230 -17 -330
-57 -209 -85 -359 -251 -425 -471 l-29 -93 -44 60 c-128 174 -265 247 -467
247 -91 0 -152 -10 -260 -45 -15 -5 -17 -4 -5 3 26 17 400 141 545 181 656
180 1307 253 1956 221z m-741 -176 c106 -33 192 -88 270 -171 113 -121 174
-262 206 -475 55 -371 -75 -680 -339 -808 -115 -55 -198 -73 -342 -74 -98 0
-134 4 -195 23 -114 35 -187 78 -266 157 -155 156 -234 408 -221 707 6 149 22
218 75 327 45 93 158 210 247 257 172 90 390 112 565 57z m1379 -4 c266 -64
431 -255 419 -485 -3 -69 -6 -78 -35 -107 -27 -27 -41 -32 -90 -36 -119 -8
-199 40 -237 144 -60 160 -249 192 -376 65 -51 -51 -100 -144 -121 -231 -20
-83 -18 -263 4 -330 26 -79 74 -140 138 -175 47 -26 64 -30 134 -30 133 0 213
56 185 130 -7 19 -20 26 -67 35 -81 16 -110 28 -137 61 -69 81 -23 236 76 258
41 10 371 -30 421 -50 37 -16 75 -62 83 -103 8 -44 -52 -489 -71 -526 -40 -78
-169 -139 -343 -162 -99 -14 -253 0 -372 33 -177 49 -315 159 -388 310 -54
110 -72 180 -79 316 -10 192 28 384 109 553 33 69 57 101 127 171 91 91 162
134 272 163 81 22 247 20 348 -4z m-3169 -240 c-8 -5 -19 -10 -25 -10 -5 0 -3
5 5 10 8 5 20 10 25 10 6 0 3 -5 -5 -10z m-96 -46 c-150 -90 -225 -169 -295
-309 -57 -115 -72 -199 -66 -370 7 -201 63 -388 174 -579 56 -96 199 -244 285
-294 68 -40 179 -80 245 -88 26 -3 55 -8 63 -10 8 -3 -49 -38 -127 -79 -939
-490 -1673 -1277 -2082 -2233 -168 -391 -293 -871 -333 -1274 -11 -108 -14
-118 -33 -118 -11 0 -148 24 -305 53 l-285 54 -42 314 c-23 173 -43 323 -45
334 -2 13 -60 -86 -157 -265 -85 -157 -158 -290 -162 -296 -6 -7 -106 8 -321
48 -172 32 -319 57 -326 56 -7 -2 89 -110 213 -240 124 -131 225 -241 225
-244 0 -3 -70 -134 -155 -291 -86 -157 -154 -287 -152 -289 2 -3 131 56 287
130 155 75 290 138 299 141 11 3 83 -67 241 -234 149 -158 226 -232 228 -221
2 9 -16 157 -38 329 -23 172 -40 314 -38 315 10 7 539 256 542 256 3 0 2 -98
-1 -217 -27 -1056 314 -2083 965 -2902 227 -286 525 -580 792 -782 l35 -27
-65 14 c-243 51 -448 -52 -562 -283 l-43 -86 0 -114 c0 -62 0 -113 0 -113 0 0
-22 7 -49 15 -126 38 -227 -35 -279 -200 -17 -55 -22 -94 -22 -180 1 -97 4
-118 28 -175 59 -141 195 -275 367 -364 117 -61 193 -79 305 -74 110 6 183 32
268 96 70 54 152 166 187 258 29 75 33 225 7 292 l-17 44 33 -9 c170 -43 287
91 287 326 0 98 -27 189 -77 263 -16 24 -32 48 -36 55 -4 7 36 -14 90 -46 468
-277 975 -462 1522 -556 83 -14 128 -25 116 -29 -71 -23 -111 -54 -137 -107
-25 -50 -32 -97 -98 -649 -67 -572 -70 -598 -55 -646 19 -66 45 -97 99 -123
56 -27 180 -42 242 -29 59 13 128 76 142 133 6 22 42 302 80 623 75 625 75
635 29 703 -12 18 -42 43 -67 57 l-45 24 65 -6 c36 -3 178 -9 315 -13 225 -7
241 -8 161 -16 -158 -14 -224 -68 -233 -190 -7 -88 84 -1171 103 -1224 27 -76
73 -116 154 -134 40 -9 712 45 779 63 101 27 159 131 142 253 -12 84 -36 131
-84 166 -55 40 -101 43 -318 25 -211 -18 -209 -19 -209 41 0 38 -4 37 200 53
114 9 143 15 189 38 76 38 106 96 105 199 -2 128 -64 215 -170 238 -28 5 -224
-7 -326 -20 -35 -5 -38 -3 -38 19 0 23 4 25 78 31 302 26 332 31 375 61 59 41
87 101 87 185 0 119 -47 201 -137 235 -33 13 -63 15 -135 11 l-93 -6 140 23
c163 27 367 69 463 97 89 25 98 24 33 -8 -74 -36 -111 -94 -111 -177 0 -52 25
-129 201 -620 136 -380 209 -572 227 -595 40 -50 86 -71 156 -71 50 0 109 18
385 117 179 64 342 128 362 142 52 36 79 80 85 138 12 100 -48 224 -129 266
-66 34 -125 26 -317 -43 -94 -34 -175 -58 -180 -54 -4 5 -71 189 -150 409 -78
220 -153 419 -167 443 -32 56 -86 91 -153 99 l-52 6 133 47 c185 65 339 129
504 210 123 61 339 182 418 234 15 10 27 16 27 14 0 -3 -60 -46 -133 -96 -157
-108 -181 -139 -181 -237 0 -33 6 -71 14 -85 27 -50 663 -966 693 -997 60 -64
166 -80 247 -38 62 32 384 269 440 324 71 69 131 161 160 244 34 95 39 276 11
388 -57 228 -235 472 -429 586 -125 74 -177 88 -332 88 -127 -1 -140 -3 -218
-32 -46 -18 -103 -43 -128 -57 -24 -13 -44 -23 -44 -21 0 2 35 28 79 59 43 30
134 99 202 153 1104 881 1730 2235 1685 3647 -6 168 -4 207 6 203 13 -5 550
-259 556 -263 2 -1 -15 -144 -38 -318 -23 -174 -40 -322 -38 -330 2 -7 52 39
113 103 61 64 163 172 227 240 l117 123 297 -141 c163 -78 299 -140 301 -137
2 2 -66 133 -152 290 -100 185 -153 291 -148 300 4 7 103 112 218 234 185 194
211 218 216 198 29 -106 42 -800 20 -1071 -71 -874 -276 -1614 -657 -2365
-215 -426 -468 -808 -790 -1195 -139 -168 -581 -610 -749 -749 -482 -401 -999
-721 -1553 -960 -1444 -624 -3107 -667 -4587 -119 -1775 657 -3168 2103 -3755
3898 -179 548 -273 1072 -301 1675 -12 255 -2 628 21 830 6 47 13 110 15 140
19 198 78 520 146 792 467 1866 1795 3423 3574 4192 83 36 154 65 159 66 6 0
-17 -16 -50 -36z m4696 6 c8 -5 11 -10 5 -10 -5 0 -17 5 -25 10 -8 5 -10 10
-5 10 6 0 17 -5 25 -10z m-4168 -20 c35 -11 85 -34 111 -51 55 -36 132 -121
165 -182 66 -124 -19 -232 -184 -232 -67 0 -73 2 -125 41 -75 57 -95 66 -148
68 -176 5 -261 -229 -171 -474 49 -135 108 -221 194 -279 107 -73 216 -71 288
6 39 41 48 74 48 169 0 47 5 95 11 107 35 68 127 117 220 117 42 0 55 -5 79
-28 36 -37 59 -114 67 -227 14 -222 -78 -381 -281 -480 -316 -156 -621 -98
-833 157 -60 72 -167 292 -198 408 -55 202 -43 400 31 550 124 248 475 408
726 330z m4299 -36 c878 -386 1658 -976 2286 -1729 651 -779 1108 -1736 1307
-2735 33 -166 90 -529 84 -535 -2 -2 -146 -30 -321 -62 -318 -59 -319 -60
-332 -39 -7 12 -79 145 -161 296 -93 171 -150 267 -152 255 -2 -11 -22 -161
-45 -334 l-42 -314 -285 -53 c-157 -29 -299 -56 -316 -59 l-31 -5 -7 86 c-11
128 -51 376 -91 553 -209 935 -744 1811 -1485 2432 -253 212 -478 365 -767
523 l-114 63 67 7 c324 33 600 311 720 724 114 396 -26 752 -371 939 -83 45
-66 41 56 -13z m-287 -10 c148 -36 259 -99 360 -205 132 -138 183 -280 173
-488 -4 -94 -11 -135 -37 -216 -101 -315 -275 -522 -505 -601 -67 -23 -97 -28
-185 -28 -131 0 -201 17 -340 86 -168 82 -285 211 -335 368 -48 153 -42 300
20 486 104 312 283 522 507 593 96 31 228 33 342 5z m-1369 -110 c31 -14 37
-24 82 -131 3 -8 -7 -10 -35 -6 -51 7 -142 -20 -182 -53 -17 -15 -43 -50 -58
-78 -23 -44 -27 -63 -27 -136 0 -75 3 -91 27 -132 15 -25 40 -55 55 -67 38
-28 14 -27 -28 2 -75 49 -111 180 -89 323 16 107 43 173 91 228 54 62 106 78
164 50z m-2271 -375 l7 -76 -40 -6 c-50 -6 -136 -46 -178 -81 -18 -15 -44 -52
-60 -84 -22 -46 -28 -70 -29 -137 -1 -103 -1 -102 -24 -125 -68 -68 -223 44
-289 207 -55 139 -61 233 -20 315 33 66 84 76 144 28 63 -50 100 -70 151 -79
95 -18 237 24 299 89 16 16 29 29 30 27 1 -1 5 -36 9 -78z m1514 -452 c34 -64
95 -134 165 -190 34 -27 63 -50 64 -51 1 -1 -117 -2 -262 -1 -146 0 -265 1
-265 1 0 1 32 25 70 55 67 51 135 127 175 197 11 17 22 32 25 32 3 0 15 -19
28 -43z m-1099 -261 c25 -13 68 -31 94 -41 l49 -18 -142 -33 c-78 -19 -173
-42 -210 -53 l-68 -19 35 47 c39 50 93 156 93 182 0 29 12 28 58 -7 25 -20 66
-46 91 -58z m2297 -18 c9 -18 41 -66 72 -107 35 -48 48 -72 36 -67 -33 13
-247 73 -307 86 -31 7 -55 15 -52 18 3 3 43 17 89 32 47 15 98 37 113 48 15
12 29 22 30 22 1 0 10 -15 19 -32z m-776 -122 c508 -64 969 -200 1406 -415
456 -223 814 -480 1175 -840 343 -344 605 -705 815 -1124 312 -620 464 -1263
464 -1957 0 -691 -152 -1335 -460 -1951 -598 -1194 -1735 -2064 -3035 -2323
-312 -63 -547 -86 -865 -86 -327 0 -607 29 -916 95 -1107 237 -2086 907 -2721
1860 -605 909 -844 2024 -668 3115 114 705 426 1412 869 1975 747 948 1816
1535 3021 1659 185 20 735 14 915 -8z m-3285 -8011 c162 -41 328 -170 395
-309 29 -58 35 -82 38 -155 3 -71 0 -96 -18 -145 -31 -81 -57 -106 -113 -106
-34 0 -58 9 -106 40 -77 50 -100 94 -101 190 0 53 -5 72 -24 101 -48 70 -158
92 -198 39 -27 -37 -14 -66 114 -262 150 -230 180 -309 159 -422 -24 -133
-135 -277 -253 -332 -56 -26 -74 -29 -158 -29 -73 1 -109 6 -154 23 -94 35
-193 99 -278 180 -138 132 -185 272 -143 432 45 172 114 218 230 151 28 -16
61 -41 75 -56 23 -25 25 -34 25 -133 1 -59 7 -124 14 -144 13 -39 76 -103 117
-118 45 -17 112 -12 134 10 38 38 23 84 -90 261 -77 121 -140 239 -160 303
-21 66 -8 175 29 251 35 71 125 171 178 199 86 44 191 55 288 31z m5877 -53
c281 -102 518 -439 518 -736 0 -177 -62 -304 -209 -429 -31 -27 -130 -101
-221 -165 -153 -109 -168 -117 -211 -117 -33 0 -54 6 -69 20 -18 16 -391 549
-643 918 -54 79 -63 135 -27 180 26 33 320 237 402 278 122 62 192 80 303 76
69 -3 118 -10 157 -25z m-5872 -406 c0 -5 -7 -1 -15 10 -8 10 -14 24 -14 29 0
6 6 1 14 -9 8 -11 15 -24 15 -30z m4117 -172 c-3 -3 -12 -4 -19 -1 -8 3 -5 6
6 6 11 1 17 -2 13 -5z m86 -98 c18 -7 40 -24 48 -37 9 -13 80 -204 158 -424
175 -487 169 -473 192 -485 31 -17 52 -12 238 55 187 67 240 76 279 49 30 -20
61 -84 68 -138 6 -40 3 -47 -27 -80 -31 -32 -67 -48 -356 -151 -358 -128 -388
-134 -432 -86 -20 21 -77 168 -224 580 -108 303 -197 565 -197 582 0 37 23 84
47 94 48 20 149 55 161 55 7 0 27 -6 45 -14z m-1170 -93 c-13 -2 -35 -2 -50 0
-16 2 -5 4 22 4 28 0 40 -2 28 -4z m-3409 -78 c21 -36 36 -68 33 -71 -11 -11
-67 50 -77 84 -21 76 -5 71 44 -13z m2633 10 c87 -11 123 -47 123 -122 0 -59
-128 -1122 -140 -1165 -6 -20 -23 -47 -38 -59 -24 -19 -36 -21 -107 -17 -47 3
-93 11 -111 21 -36 19 -59 66 -57 117 2 47 132 1129 139 1156 7 27 52 71 79
76 20 5 30 4 112 -7z m1304 -11 c46 -40 65 -148 36 -203 -24 -48 -59 -58 -272
-76 -110 -9 -211 -22 -224 -28 -41 -20 -50 -101 -19 -179 14 -39 44 -41 242
-24 181 16 210 13 249 -31 22 -25 37 -117 26 -156 -11 -39 -45 -75 -78 -81
-14 -4 -98 -13 -187 -21 -175 -15 -211 -26 -221 -63 -8 -34 3 -166 16 -191 7
-11 24 -24 38 -27 15 -4 122 1 239 10 191 16 215 16 248 2 50 -21 69 -69 64
-154 -4 -55 -8 -68 -31 -88 -35 -30 -34 -30 -422 -63 -362 -30 -391 -29 -428
22 -19 24 -26 85 -71 616 -56 660 -56 654 9 685 25 12 127 25 353 46 351 32
402 32 433 4z"/>
<path d="M5855 12634 c-232 -41 -405 -201 -466 -431 -28 -101 -30 -297 -5
-432 65 -354 261 -551 567 -568 213 -12 411 61 529 195 57 64 115 190 136 291
36 183 3 451 -78 620 -53 111 -170 233 -271 280 -125 59 -253 73 -412 45z
m242 -259 c146 -73 243 -273 243 -499 0 -158 -37 -267 -118 -351 -81 -84 -215
-105 -324 -52 -148 73 -241 263 -242 492 0 156 33 260 111 346 59 65 112 87
214 88 51 1 76 -5 116 -24z"/>
<path d="M5955 12345 c-5 -2 -27 -6 -48 -10 -51 -8 -119 -71 -151 -139 -66
-140 -60 -345 13 -501 78 -167 224 -236 358 -170 176 88 215 454 72 677 -65
100 -176 166 -244 143z m87 -123 c147 -97 189 -462 68 -584 -33 -33 -89 -45
-130 -28 -159 66 -225 421 -108 581 13 17 32 35 43 39 35 15 99 11 127 -8z"/>
<path d="M7304 12630 c-323 -49 -524 -352 -524 -787 0 -387 185 -604 556 -654
192 -25 405 14 486 89 l40 37 29 215 c16 118 28 235 27 259 -5 70 -24 78 -241
108 -176 24 -188 25 -212 9 -30 -20 -45 -53 -45 -102 0 -41 34 -80 77 -89 95
-18 120 -28 142 -52 20 -23 23 -34 19 -80 -5 -60 -28 -92 -93 -126 -34 -19
-56 -22 -150 -22 -104 0 -113 2 -164 30 -163 90 -227 322 -161 581 54 210 185
338 349 338 114 1 192 -53 246 -169 40 -87 57 -102 128 -116 107 -19 146 24
129 144 -28 183 -156 316 -355 366 -88 23 -214 32 -283 21z"/>
<path d="M2140 10514 c0 -5 32 -114 72 -242 47 -154 68 -236 61 -240 -6 -4
-97 -68 -203 -142 l-192 -135 84 -7 c46 -3 158 -6 249 -7 l166 -1 74 -239 c41
-132 77 -237 80 -233 4 4 41 111 83 238 l77 231 251 -5 c147 -3 249 -1 245 4
-3 5 -93 74 -200 154 l-195 145 80 233 c44 128 78 235 76 237 -1 2 -91 -59
-198 -135 -107 -77 -201 -139 -208 -140 -9 0 -255 178 -389 283 -7 5 -13 6
-13 1z"/>
<path d="M1841 9114 c-90 -124 -169 -228 -176 -231 -7 -2 -131 34 -276 81
-144 48 -264 84 -267 82 -2 -3 69 -106 159 -230 90 -124 165 -229 166 -233 2
-5 -73 -111 -166 -238 -93 -126 -167 -232 -165 -234 1 -2 123 36 270 84 146
47 271 84 278 82 6 -3 86 -107 176 -232 l165 -227 3 289 2 290 275 88 c151 49
272 92 267 96 -4 4 -127 46 -274 94 l-268 87 -2 289 -3 289 -164 -226z"/>
<path d="M1556 5673 c-93 -128 -173 -233 -179 -233 -5 0 -128 39 -274 86 -145
47 -266 84 -268 82 -2 -1 73 -107 166 -235 l169 -232 -169 -233 c-93 -128
-168 -234 -166 -236 2 -2 122 35 267 82 145 47 269 86 275 86 6 0 87 -104 180
-231 l168 -231 3 291 2 291 268 86 c147 47 270 89 274 93 4 3 -116 46 -267 95
l-275 89 -2 292 -3 292 -169 -234z"/>
<path d="M11590 5619 l0 -295 -187 -61 c-104 -34 -227 -74 -275 -89 -49 -16
-85 -31 -80 -35 4 -3 127 -45 274 -93 l268 -86 2 -292 3 -292 168 232 c93 128
174 232 180 232 6 0 130 -39 275 -86 145 -47 266 -84 267 -82 2 2 -72 108
-165 236 l-170 232 170 232 c93 128 167 234 165 236 -2 2 -123 -35 -268 -82
-146 -47 -269 -86 -274 -86 -5 0 -61 71 -123 158 -63 86 -140 193 -172 236
l-58 80 0 -295z"/>
<path d="M2169 4222 l-74 -237 -243 -6 c-133 -3 -244 -8 -247 -11 -3 -3 83
-67 190 -143 107 -75 197 -140 199 -144 3 -4 -28 -113 -68 -241 -41 -129 -72
-236 -71 -238 2 -2 93 64 203 146 l199 150 204 -143 c112 -79 205 -143 206
-141 2 2 -33 108 -77 237 -44 128 -77 236 -73 240 5 3 91 68 193 144 102 76
190 142 195 147 6 6 -82 9 -242 6 l-253 -3 -16 45 c-8 25 -44 130 -80 234 -35
104 -66 191 -67 193 -2 1 -37 -104 -78 -235z"/>
<path d="M11010 4275 c-34 -104 -71 -213 -81 -240 l-19 -50 -252 3 c-208 2
-250 0 -237 -10 8 -7 99 -75 202 -152 103 -76 187 -140 187 -141 0 -2 -36
-108 -80 -235 -44 -128 -79 -234 -77 -236 2 -2 94 61 206 140 l203 144 200
-149 c110 -82 201 -149 203 -149 2 0 0 12 -5 28 -5 15 -37 117 -71 227 -34
110 -64 205 -66 212 -3 6 85 75 196 154 111 78 199 145 196 147 -3 3 -114 8
-247 11 l-243 6 -70 225 c-39 124 -73 232 -76 240 -3 8 -34 -70 -69 -175z"/>
<path d="M4629 2517 c-24 -13 -56 -41 -70 -63 -14 -22 -111 -288 -218 -604
-182 -533 -193 -568 -188 -622 9 -102 64 -157 198 -199 82 -26 125 -24 187 7
69 34 89 69 158 279 31 94 59 172 61 174 4 5 152 -41 210 -65 l33 -13 -59
-173 c-72 -212 -75 -223 -61 -284 21 -92 84 -144 220 -179 90 -23 148 -8 210
54 45 46 45 46 238 611 203 597 211 626 178 703 -26 64 -116 119 -239 147 -76
17 -167 -20 -206 -84 -12 -18 -41 -91 -65 -162 -24 -71 -49 -141 -55 -156
l-10 -28 -119 42 -119 41 53 161 c59 176 65 226 35 293 -23 49 -73 85 -166
119 -85 31 -149 31 -206 1z m177 -87 c139 -47 148 -81 73 -295 -65 -190 -72
-220 -50 -246 25 -31 334 -135 365 -123 22 8 52 73 96 209 24 72 49 144 57
160 34 68 85 80 191 44 76 -25 112 -64 112 -118 0 -22 -76 -260 -190 -592
-210 -615 -207 -609 -290 -609 -56 0 -151 35 -177 65 -36 41 -30 89 43 307 36
112 62 207 59 218 -9 28 -39 43 -190 93 -154 52 -184 56 -208 29 -9 -10 -46
-106 -82 -213 -89 -261 -110 -282 -246 -239 -80 26 -129 71 -129 119 0 34 373
1132 395 1164 35 50 81 57 171 27z"/>
<path d="M4703 2412 c-12 -2 -29 -14 -37 -28 -26 -39 -386 -1103 -386 -1140 0
-42 25 -66 92 -88 68 -22 101 -20 125 7 12 12 51 110 87 217 54 158 72 200 96
223 17 15 40 27 51 27 24 0 291 -86 331 -106 44 -22 68 -55 68 -90 0 -18 -29
-119 -65 -225 -36 -106 -65 -202 -65 -213 0 -38 28 -64 92 -85 78 -26 91 -26
123 2 21 18 62 129 215 577 105 305 190 562 190 571 0 33 -40 67 -102 88 -34
12 -69 21 -78 21 -37 0 -68 -55 -120 -213 -59 -180 -89 -227 -144 -227 -55 0
-332 98 -366 130 -42 40 -39 69 25 255 65 186 69 228 20 256 -40 23 -124 46
-152 41z"/>
<path d="M4635 12329 c-260 -38 -472 -221 -515 -447 -20 -98 -8 -288 24 -395
35 -117 112 -277 169 -353 125 -164 318 -256 506 -239 72 6 208 43 266 72 128
65 210 157 240 267 34 124 6 339 -46 367 -37 19 -142 -15 -183 -59 -15 -17
-19 -39 -20 -119 -3 -114 -20 -157 -85 -216 -142 -128 -386 -29 -508 208 -84
163 -108 319 -70 446 61 204 255 272 410 145 60 -49 88 -58 144 -46 137 31
154 91 58 213 -100 127 -231 179 -390 156z"/>
<path d="M10982 10374 c-106 -79 -197 -144 -203 -144 -5 0 -99 63 -207 139
-108 77 -198 138 -200 136 -2 -2 33 -108 76 -237 l80 -235 -199 -147 c-109
-81 -199 -150 -199 -153 0 -3 112 -4 250 -1 l249 5 77 -231 c42 -127 79 -234
83 -238 3 -4 40 101 80 232 l74 240 166 1 c91 1 203 4 249 7 l83 7 -198 139
c-109 77 -200 141 -202 143 -2 1 29 109 69 238 40 129 71 237 69 239 -2 2 -91
-61 -197 -140z"/>
<path d="M11310 9053 l0 -291 -267 -87 c-148 -48 -271 -90 -275 -94 -4 -4 116
-47 267 -96 l275 -88 2 -290 3 -291 168 232 c92 128 172 232 178 232 6 0 130
-39 276 -86 145 -47 266 -84 267 -82 2 1 -73 108 -166 235 l-170 233 171 235
c93 129 167 235 162 235 -4 0 -125 -39 -270 -86 -145 -47 -268 -83 -275 -81
-7 3 -83 103 -171 223 -87 121 -162 223 -167 229 -4 5 -8 -122 -8 -282z"/>
<path d="M8570 12275 c-218 -49 -398 -241 -500 -530 -80 -229 -79 -414 3 -569
49 -94 163 -202 267 -254 410 -204 779 -17 945 480 97 290 54 521 -130 702
-139 137 -400 213 -585 171z m305 -278 c63 -32 108 -79 134 -138 127 -286
-125 -761 -404 -764 -82 0 -181 47 -229 111 -96 125 -95 337 1 529 123 244
325 351 498 262z"/>
<path d="M8651 11949 c-105 -47 -202 -166 -254 -314 -89 -249 -7 -462 186
-482 189 -19 397 253 401 522 2 146 -41 232 -139 276 -54 25 -138 24 -194 -2z
m154 -93 c75 -32 99 -161 57 -308 -37 -128 -144 -263 -230 -288 -35 -11 -45
-10 -78 6 -80 39 -108 126 -82 255 37 179 168 347 271 349 15 0 43 -6 62 -14z"/>
<path d="M6667 10645 c-49 -69 -90 -125 -92 -125 -2 0 -1 53 2 118 l6 119 -66
-8 c-305 -37 -591 -182 -749 -380 -66 -83 -137 -219 -145 -276 -4 -34 0 -42
36 -78 23 -21 41 -43 41 -47 0 -4 -24 -8 -54 -8 l-54 0 -30 -83 c-61 -169 -77
-270 -76 -492 0 -184 2 -208 26 -297 31 -113 88 -239 148 -329 42 -61 44 -62
53 -38 34 84 83 171 112 199 l35 34 0 -45 c0 -68 9 -87 39 -91 23 -3 27 -9 39
-63 19 -88 10 -202 -21 -269 -47 -103 -156 -182 -291 -211 l-61 -13 85 -1
c137 -1 246 35 395 132 38 25 71 44 73 42 4 -3 -69 -231 -294 -922 l-125 -383
-1350 -2 -1350 -3 695 -505 c780 -566 708 -500 707 -645 -1 -133 -37 -217
-192 -447 -112 -165 -158 -285 -166 -429 -7 -116 11 -181 65 -241 49 -55 104
-80 184 -86 99 -7 152 11 215 73 117 117 125 318 23 578 -56 144 -73 231 -67
342 3 50 8 99 12 110 5 14 4 16 -3 6 -7 -10 -11 -10 -14 -1 -7 22 -13 -73 -12
-205 1 -109 6 -146 29 -230 78 -282 76 -274 73 -387 -3 -100 -5 -109 -34 -150
-52 -75 -184 -129 -264 -108 -49 13 -123 79 -149 133 -16 33 -21 63 -21 124 0
135 49 259 214 545 100 175 132 250 148 352 9 63 15 76 30 76 10 0 18 3 18 8
0 4 7 66 15 137 8 72 15 136 15 143 0 22 -121 71 -262 106 -154 37 -214 67
-301 147 -74 68 -96 101 -78 123 10 12 3 38 -36 135 -31 77 -53 121 -63 122
-10 0 -11 2 -3 6 10 3 9 12 -3 35 -8 16 -13 32 -10 35 6 7 64 -35 121 -86 41
-38 32 -19 -19 38 l-31 34 30 -7 c17 -4 47 -18 68 -32 l38 -25 -12 23 c-6 13
-18 31 -27 41 -14 16 -13 17 11 17 24 0 75 -35 104 -70 7 -8 17 -32 23 -53 9
-32 13 -36 30 -27 17 9 18 13 4 45 -16 38 -18 93 -5 113 9 16 21 -30 21 -83 0
-43 18 -58 56 -45 27 9 29 14 29 63 l0 52 90 0 90 0 20 -42 c17 -39 23 -43 65
-49 25 -4 55 -11 68 -15 38 -15 142 53 142 92 0 15 7 19 39 19 48 0 57 -11 65
-82 4 -42 2 -68 -10 -98 -9 -22 -15 -43 -13 -45 3 -2 27 8 54 23 54 29 71 67
41 92 -38 30 -11 69 54 77 40 6 41 5 57 -36 13 -33 19 -39 30 -29 8 6 12 17 9
25 -3 8 -1 11 4 8 6 -3 10 4 10 17 l0 23 20 -25 c11 -14 20 -35 20 -47 0 -29
-113 -158 -167 -190 -24 -14 -40 -29 -37 -34 7 -12 -52 -36 -151 -61 -94 -24
-143 -50 -151 -83 -15 -61 74 -156 282 -300 68 -48 124 -93 124 -101 0 -7 56
-68 125 -135 149 -145 187 -208 193 -321 3 -47 1 -68 -7 -68 -47 0 -156 115
-146 154 4 14 3 17 -3 8 -6 -10 -15 0 -30 37 -12 27 -22 58 -22 68 0 10 -22
41 -50 68 -43 42 -50 46 -50 27 0 -12 -11 -29 -25 -38 -22 -14 -30 -15 -53 -5
-20 10 -27 10 -30 1 -3 -7 -35 36 -73 94 -67 104 -168 215 -226 248 l-29 17 9
-72 c7 -58 6 -80 -7 -117 -14 -40 -23 -79 -41 -170 -4 -19 0 -15 16 13 14 27
24 36 32 29 7 -4 69 -50 140 -101 108 -79 127 -96 127 -119 -1 -35 -29 -96
-74 -159 -140 -196 -121 -383 40 -383 125 0 166 117 105 299 -16 47 -33 103
-36 124 -8 43 2 110 15 105 20 -6 312 -222 316 -232 2 -6 -183 -582 -410
-1281 -228 -698 -412 -1272 -410 -1273 1 -2 492 351 1090 786 l1087 790 43
-31 c24 -17 44 -37 44 -44 0 -24 -60 -132 -124 -226 -118 -171 -168 -299 -168
-432 -1 -121 36 -189 127 -238 60 -32 174 -31 235 3 85 48 126 139 124 280 -1
97 -10 135 -64 275 -36 93 -67 240 -58 279 2 13 27 0 108 -60 58 -42 107 -78
109 -80 1 -1 -9 -28 -23 -58 -67 -142 -29 -256 86 -256 66 0 109 54 120 152 3
26 44 -3 807 -557 443 -322 806 -583 809 -581 3 4 -814 2530 -824 2547 -4 7
601 449 615 449 5 0 19 -21 31 -46 33 -68 30 -156 -9 -262 -53 -143 -38 -255
40 -294 42 -22 81 -23 124 -2 52 24 70 59 70 134 0 75 -23 130 -102 252 -75
114 -88 195 -46 282 14 29 34 46 146 126 l47 34 31 -30 c17 -16 42 -49 55 -74
l23 -45 -6 35 c-3 19 -15 69 -26 110 -13 45 -20 104 -20 146 l1 72 -57 -18
c-74 -22 -106 -39 -217 -116 -102 -71 -145 -118 -224 -242 l-53 -84 -20 33
-21 32 -23 -29 c-13 -16 -32 -57 -44 -92 -11 -34 -29 -67 -39 -72 -10 -6 -43
-10 -72 -10 -53 0 -54 -1 -67 -35 -12 -34 -64 -95 -81 -95 -41 0 -54 103 -21
168 25 48 165 202 234 255 29 23 52 49 50 57 -1 9 41 44 110 92 182 125 269
207 287 268 13 45 -25 85 -98 106 -163 44 -194 56 -189 68 3 7 -14 22 -39 35
-24 13 -73 56 -109 96 -69 78 -79 106 -47 144 17 22 17 22 19 -23 2 -54 20
-93 51 -114 l22 -15 -19 43 c-19 43 -19 49 1 103 12 30 47 36 92 16 33 -16 40
-37 20 -66 -9 -14 -12 -29 -7 -33 4 -4 41 -17 81 -28 l72 -19 -40 37 c-43 40
-51 75 -28 125 9 21 18 25 55 25 35 0 43 -3 43 -18 0 -21 42 -63 85 -85 27
-13 37 -14 85 -1 30 8 62 14 72 14 11 0 18 7 18 19 0 10 9 30 21 45 19 24 26
26 105 26 81 0 84 -1 90 -25 3 -14 4 -38 1 -54 -5 -25 -2 -29 31 -39 20 -6 38
-9 40 -7 3 3 7 27 10 55 2 28 8 53 13 56 12 7 22 -42 15 -74 -11 -47 -11 -55
1 -59 6 -2 14 10 18 28 10 42 86 119 120 119 30 0 31 -4 6 -36 -22 -28 -66
-152 -58 -161 14 -13 27 12 28 50 0 37 1 39 10 19 l9 -24 35 31 c19 17 48 37
64 46 16 8 39 30 51 50 12 19 24 35 27 35 2 0 -5 -16 -17 -35 -19 -31 -20 -35
-5 -35 12 0 8 -10 -19 -41 -19 -23 -50 -70 -68 -104 l-32 -63 27 -35 c15 -20
27 -42 27 -50 0 -16 -152 -167 -168 -167 -6 0 -28 -11 -48 -25 -45 -31 -54
-31 -46 -3 5 20 1 19 -44 -13 -27 -20 -62 -39 -77 -43 -20 -5 -27 -11 -23 -24
2 -9 7 -60 11 -112 9 -127 13 -142 36 -135 16 5 19 1 19 -28 0 -51 35 -178 66
-239 15 -29 65 -120 112 -202 144 -251 192 -380 192 -511 -1 -102 -26 -152
-113 -218 -58 -44 -106 -48 -193 -17 -74 26 -117 60 -141 112 -43 93 -37 213
22 417 53 182 68 281 61 391 -4 52 -7 108 -7 124 -1 18 -4 24 -9 16 -6 -10 -9
-8 -13 6 -3 10 -2 -1 1 -26 4 -25 6 -90 6 -145 -2 -105 -4 -114 -95 -370 -64
-179 -49 -383 36 -482 53 -62 113 -88 206 -87 220 1 325 179 259 440 -28 109
-81 215 -192 380 -117 175 -151 264 -151 394 -1 123 49 255 120 321 15 14 226
169 468 344 242 175 449 326 460 336 19 19 -14 19 -1330 19 l-1350 0 -82 253
c-45 138 -80 253 -79 254 1 1 114 -50 252 -113 137 -64 264 -122 282 -129 l33
-14 -40 47 c-108 130 -317 588 -505 1107 l-47 130 -102 1 c-122 0 -171 19
-201 74 -42 79 7 159 113 186 125 31 227 -3 271 -91 23 -46 25 -60 24 -185
l-1 -135 105 -80 c57 -44 108 -81 113 -83 4 -2 -8 34 -26 80 -57 140 -70 200
-70 333 0 93 4 131 19 168 l18 48 -26 38 c-31 45 -33 80 -5 135 l20 42 -45 93
c-49 102 -49 123 0 141 33 13 120 13 163 0 19 -5 36 -8 38 -6 2 1 -12 36 -31
77 l-34 73 31 44 c43 60 159 169 230 215 81 54 207 111 307 141 57 16 84 29
82 38 -7 26 -114 157 -195 238 -284 283 -690 472 -1087 505 -41 3 -88 8 -105
10 -28 4 -35 -2 -118 -120z m359 0 c254 -57 552 -181 744 -310 98 -66 240
-184 275 -229 l25 -31 -28 -6 c-15 -4 -52 -7 -82 -8 l-56 -1 -53 61 c-205 233
-556 428 -971 539 -71 19 -72 20 -24 16 28 -3 104 -17 170 -31z m-71 -75 c217
-32 423 -160 546 -341 42 -62 109 -201 109 -227 0 -7 -30 11 -67 41 -171 135
-366 227 -583 272 -115 24 -292 38 -366 30 l-69 -8 115 -14 c372 -43 670 -198
860 -447 8 -11 -23 13 -70 54 -243 209 -520 328 -877 375 -114 15 -118 15
-182 -6 -36 -12 -97 -38 -136 -57 -38 -19 -65 -28 -59 -21 6 8 25 32 42 55 17
23 29 44 25 48 -3 3 -1 6 6 6 7 0 37 21 66 48 50 44 139 103 176 117 18 7 28
-18 30 -75 2 -82 10 -79 100 38 75 99 88 111 119 115 69 8 146 6 215 -3z m-97
-663 c150 -44 309 -157 417 -297 l45 -58 81 0 c65 0 86 -3 107 -19 44 -33 36
-38 -62 -38 -85 0 -97 -2 -119 -23 l-24 -23 -37 50 c-51 69 -192 199 -260 240
-31 18 -87 45 -124 60 -62 24 -79 26 -217 25 -135 0 -158 -3 -230 -27 -197
-66 -380 -212 -460 -369 -22 -42 -41 -75 -42 -74 -7 7 52 168 85 230 144 275
515 417 840 323z m-33 -184 c195 -48 377 -209 488 -429 23 -45 25 -55 14 -83
-6 -17 -14 -31 -17 -31 -4 0 -19 33 -35 73 -88 227 -298 402 -560 468 -28 7
-54 17 -60 22 -13 12 93 -1 170 -20z m-536 -1582 c-7 -19 -8 -36 -3 -41 5 -4
60 -36 122 -70 l112 -61 0 -62 c-1 -59 -1 -61 -14 -32 l-12 29 -13 -49 c-7
-28 -26 -90 -42 -140 -40 -126 -92 -317 -129 -475 -17 -74 -41 -162 -53 -195
-27 -74 -50 -80 -57 -15 -5 43 -6 44 -50 55 -51 13 -50 8 -32 135 14 97 0 201
-40 300 -43 106 -49 229 -18 332 12 40 31 90 42 112 l20 39 30 -37 c16 -20 33
-36 38 -36 5 0 14 24 20 54 6 29 27 86 46 126 35 73 54 91 33 31z m618 -359
c19 -12 33 -60 49 -163 12 -84 12 -102 -1 -147 -26 -87 -94 -159 -165 -177
-25 -6 -26 -3 -93 202 -37 115 -67 211 -67 215 0 4 29 -6 65 -22 l65 -29 0 29
c0 21 5 30 16 30 12 0 15 -9 12 -37 -3 -37 -2 -38 72 -80 41 -23 78 -42 83
-43 15 0 6 37 -32 133 -36 90 -37 110 -4 89z m280 -413 l111 -334 387 -3 c302
-2 386 -5 382 -15 -3 -9 -95 -12 -408 -12 l-404 0 -66 205 c-86 266 -159 496
-159 504 0 3 10 2 23 -3 19 -7 39 -58 134 -342z m-556 21 l86 -265 -180 -3
c-99 -1 -182 -1 -184 2 -4 3 152 492 173 546 8 19 0 42 105 -280z m-515 -414
c-14 -47 -14 -48 5 -30 28 25 33 11 11 -33 -27 -53 -108 -252 -116 -287 -5
-20 -2 -34 10 -47 14 -15 14 -24 5 -51 -29 -82 -86 -98 -181 -50 -52 26 -55
29 -58 69 -4 56 29 118 113 213 80 89 187 225 205 260 19 36 23 12 6 -44z
m-2758 37 c6 -19 -33 -16 -49 3 -11 14 -9 15 16 12 16 -1 30 -9 33 -15z m210
0 c3 -10 -16 -13 -72 -13 -70 0 -87 6 -69 24 12 12 136 2 141 -11z m2162 2 c0
-13 -39 -15 -317 -13 -242 2 -317 6 -321 16 -3 9 65 12 317 12 280 0 321 -2
321 -15z m1080 0 c0 -13 -26 -15 -175 -15 -149 0 -175 2 -175 15 0 13 26 15
175 15 149 0 175 -2 175 -15z m2923 1 c4 -9 -42 -48 -131 -112 -168 -123 -202
-146 -202 -140 0 2 70 54 155 116 85 62 158 116 161 121 3 5 -24 9 -60 9 -37
0 -66 4 -66 10 0 16 137 13 143 -4z m-3427 -125 c-39 -85 -42 -112 -24 -190
10 -45 9 -53 -7 -71 -11 -13 -31 -20 -53 -20 -32 0 -34 2 -28 28 4 15 13 55
20 90 8 39 26 82 49 115 19 28 43 81 54 117 14 50 19 59 21 38 2 -16 -12 -61
-32 -107z m110 73 c4 -20 -1 -80 -10 -135 -10 -58 -14 -119 -11 -143 7 -46
-10 -76 -44 -76 -52 0 -54 74 -7 231 19 63 37 127 40 142 8 35 23 26 32 -19z
m-1574 -532 c505 -365 558 -406 558 -425 0 -19 -1 -19 -27 -2 -16 10 -57 39
-93 65 -36 26 -159 114 -275 195 -342 241 -415 296 -409 306 13 22 53 0 246
-139z m2697 -154 c80 -245 87 -274 73 -285 -9 -7 -19 -13 -24 -13 -4 0 -47
122 -95 270 l-87 270 -212 0 c-126 0 -215 4 -219 10 -6 9 70 13 347 18 l127 2
90 -272z m-2049 225 c0 -5 -25 -83 -56 -175 l-55 -167 -107 78 c-59 42 -164
119 -234 170 -71 51 -128 94 -128 97 0 2 131 4 290 4 160 0 290 -3 290 -7z
m1433 -75 c123 -361 217 -643 217 -653 0 -12 -551 -418 -583 -431 -8 -3 -152
90 -328 212 -173 119 -315 218 -316 219 -1 0 50 164 115 363 l117 362 376 0
377 0 25 -72z m1151 14 c-244 -178 -393 -285 -398 -286 -6 -1 -116 318 -116
337 0 4 134 7 297 7 l297 0 -80 -58z m-2074 -76 c0 -3 -45 -143 -100 -313 -94
-289 -99 -309 -83 -321 10 -7 168 -117 351 -243 182 -127 332 -234 332 -239 0
-4 -82 -66 -182 -137 -193 -137 -208 -146 -208 -140 0 2 79 59 175 128 134 95
172 126 162 135 -6 7 -163 116 -347 243 -184 128 -336 236 -338 241 -3 7 193
622 205 643 4 7 33 10 33 3z m2745 -85 c-10 -8 -233 -171 -302 -219 -18 -13
-33 -21 -33 -18 0 6 330 246 338 246 3 0 2 -4 -3 -9z m-130 -511 c-4 -6 -1
-10 5 -10 7 0 9 -7 6 -16 -3 -8 -2 -13 2 -10 5 3 14 -10 21 -29 6 -19 28 -60
47 -92 52 -87 45 -146 -26 -198 -37 -28 -45 -30 -63 -15 -77 61 -80 64 -80
121 -1 31 8 80 21 117 17 47 22 86 22 160 l1 97 25 -58 c13 -32 22 -62 19 -67z
m-3788 -97 c0 -89 3 -117 21 -161 14 -34 22 -74 22 -113 0 -52 -4 -63 -26 -84
-15 -14 -33 -25 -40 -25 -8 0 -14 -4 -14 -10 0 -22 -48 -8 -77 23 -60 62 -61
104 -5 195 16 26 35 64 42 84 8 20 18 34 24 31 5 -4 7 1 3 10 -3 10 -2 17 4
17 6 0 7 4 4 10 -3 5 3 31 14 56 12 26 21 53 21 60 0 8 2 14 4 14 2 0 4 -48 3
-107z m2994 -64 c-13 -11 -30 -23 -37 -27 -11 -6 6 -69 75 -282 49 -151 221
-679 381 -1173 160 -495 290 -900 288 -902 -2 -2 -15 7 -30 18 -23 19 -56 112
-238 672 -421 1290 -530 1628 -530 1635 0 8 100 80 110 80 3 -1 -6 -10 -19
-21z m-800 -159 c-6 -19 -36 -75 -66 -124 -31 -49 -65 -107 -76 -128 l-19 -38
50 31 c28 17 54 29 57 26 3 -3 -8 -30 -25 -59 -66 -116 -77 -229 -32 -319 54
-107 131 -170 320 -264 109 -54 121 -63 227 -174 62 -64 111 -123 110 -131 -1
-8 21 -29 48 -46 83 -54 95 -64 126 -106 40 -57 54 -111 36 -146 -10 -20 -11
-33 -3 -44 24 -39 -76 -82 -111 -47 -6 6 -33 15 -59 20 -26 5 -59 19 -72 32
-13 12 -48 70 -79 129 -52 103 -55 107 -82 102 -24 -5 -29 -2 -41 28 -84 215
-147 274 -530 490 -25 15 -69 45 -97 68 -42 33 -53 48 -53 70 0 16 -11 46 -25
66 -37 54 -49 108 -50 214 0 77 4 102 20 130 l20 35 3 -33 c2 -19 11 -38 23
-45 14 -9 19 -23 19 -54 0 -45 26 -123 41 -123 5 0 9 9 9 19 0 11 13 54 30 96
16 43 32 98 36 124 9 61 22 94 34 86 5 -3 10 -20 10 -38 0 -30 2 -29 51 38 28
39 74 105 102 148 l52 78 3 -38 c2 -21 -1 -54 -7 -73z m-1656 44 c17 -14 21
-21 10 -16 -30 16 -61 41 -50 41 6 0 24 -11 40 -25z m-1 -80 c-1 -26 -17 -98
-45 -206 -5 -21 -14 -38 -19 -38 -15 0 -12 45 11 139 12 49 19 102 16 124 -5
37 -5 38 16 24 15 -10 22 -24 21 -43z m274 -147 c2 -9 -33 -126 -77 -259 -44
-134 -110 -337 -148 -452 -51 -154 -74 -213 -90 -223 -20 -13 -18 -3 21 119
189 589 272 837 281 835 6 -2 11 -11 13 -20z m1719 17 c-21 -21 -433 -321
-436 -317 -3 2 4 10 15 17 10 8 107 80 214 160 107 80 199 145 204 146 5 0 6
-3 3 -6z m90 -404 c50 -154 88 -280 84 -280 -11 0 -465 335 -467 345 -3 9 271
215 286 215 3 0 47 -126 97 -280z m-1586 169 c77 -56 138 -105 137 -110 -4
-10 -459 -341 -464 -336 -6 6 171 547 179 547 5 0 71 -46 148 -101z m-591 -38
c0 -21 -66 -248 -148 -507 -33 -105 -79 -269 -102 -365 -23 -96 -51 -196 -62
-224 -15 -35 -23 -85 -29 -171 -9 -136 -26 -194 -58 -194 -36 0 -61 35 -61 85
0 74 38 244 69 311 18 39 26 66 20 70 -15 9 -6 38 52 172 140 321 202 495 259
724 24 96 35 125 46 121 8 -3 14 -13 14 -22z m2070 -395 c278 -203 327 -241
337 -271 10 -29 10 -34 -1 -28 -7 5 -176 127 -375 271 -340 248 -381 282 -381
324 0 5 21 -6 48 -25 26 -19 193 -141 372 -271z m-850 30 c0 -3 -46 -38 -102
-79 -555 -401 -1175 -852 -1185 -860 -7 -5 -13 -7 -13 -4 0 3 255 191 568 418
312 226 603 438 646 470 79 59 86 63 86 55z m179 -190 c6 -7 8 -26 5 -42 -9
-49 14 -192 58 -349 63 -225 57 -348 -19 -417 -33 -30 -115 -60 -164 -61 -37
-1 -57 6 -90 28 -67 47 -93 95 -97 180 -6 117 36 232 177 478 38 67 77 139 87
160 19 40 26 44 43 23z m337 -244 c30 -23 43 -41 47 -66 9 -56 -9 -101 -49
-125 -44 -26 -48 -26 -84 0 -36 27 -54 70 -45 106 10 42 69 132 80 124 6 -4
29 -22 51 -39z m-1826 -517 c0 -2 -132 -100 -292 -216 -384 -278 -365 -265
-351 -250 10 12 634 470 641 471 1 0 2 -2 2 -5z"/>
<path d="M5978 6745 c-88 -94 -104 -140 -57 -166 16 -8 22 -4 39 23 19 32 84
199 78 202 -2 1 -29 -26 -60 -59z"/>
<path d="M6611 5177 c-1 -4 6 -42 15 -85 9 -42 13 -93 10 -113 -6 -37 9 -99
25 -99 13 0 22 66 11 86 -6 11 -13 46 -17 79 -7 50 -42 157 -44 132z"/>
<path d="M7528 4239 c-10 -5 -18 -16 -18 -24 0 -21 75 -80 130 -103 45 -19 50
-19 50 -4 0 15 -125 142 -139 142 -3 0 -14 -5 -23 -11z"/>
<path d="M4770 6924 c0 -5 -16 -26 -36 -47 -22 -23 -31 -37 -22 -37 24 0 78
74 64 88 -3 3 -6 1 -6 -4z"/>
<path d="M4985 6868 l-16 -33 21 24 c11 13 20 27 20 32 0 18 -10 8 -25 -23z"/>
<path d="M5080 5905 c0 -5 5 -17 10 -25 5 -8 10 -10 10 -5 0 6 -5 17 -10 25
-5 8 -10 11 -10 5z"/>
<path d="M3653 2936 c-93 -30 -170 -103 -225 -213 -25 -51 -31 -76 -31 -131
-1 -110 8 -129 207 -456 56 -93 66 -116 66 -155 -1 -99 -91 -140 -200 -90 -45
20 -103 69 -121 101 -25 45 -36 124 -27 184 12 78 1 104 -59 148 -54 40 -101
53 -130 37 -52 -27 -100 -209 -82 -309 43 -234 383 -475 610 -432 108 21 186
78 259 191 46 71 64 142 57 220 -7 77 -35 136 -146 304 -153 230 -165 267
-112 327 26 29 35 33 83 33 68 0 124 -29 163 -84 27 -38 30 -52 34 -128 3 -79
5 -86 35 -116 47 -47 117 -81 149 -73 56 14 96 149 77 258 -17 90 -53 154
-134 233 -140 138 -325 197 -473 151z"/>
<path d="M9489 2910 c-52 -9 -167 -53 -219 -83 -81 -48 -351 -240 -365 -260
-8 -12 -15 -32 -15 -45 0 -15 123 -201 326 -495 180 -260 336 -482 347 -494
14 -16 32 -23 56 -23 30 0 66 21 218 130 99 71 208 157 241 190 75 74 125 171
142 272 34 197 -61 439 -245 624 -94 95 -178 145 -290 174 -82 21 -120 23
-196 10z m185 -284 c154 -76 290 -294 290 -466 -1 -92 -31 -155 -108 -228 -98
-91 -159 -110 -211 -64 -28 24 -384 539 -402 581 -8 19 -12 44 -9 57 9 32 60
81 120 111 76 39 93 42 181 40 65 -2 91 -7 139 -31z"/>
<path d="M9430 2612 c-112 -37 -174 -97 -154 -150 13 -33 371 -552 393 -569
35 -27 86 -7 164 65 97 91 118 183 74 324 -45 142 -156 275 -270 323 -60 25
-144 28 -207 7z m192 -103 c128 -65 244 -284 210 -397 -12 -39 -106 -141 -119
-128 -4 3 -82 115 -174 248 -188 271 -183 255 -87 289 61 22 110 19 170 -12z"/>
<path d="M7933 2194 c-108 -45 -116 -1 113 -641 109 -306 206 -565 215 -576
11 -14 28 -20 55 -19 51 0 651 215 682 244 29 28 29 80 -1 133 -38 68 -49 67
-280 -15 -190 -67 -208 -71 -240 -61 -20 7 -43 24 -52 38 -9 14 -86 219 -171
457 -104 288 -162 437 -175 449 -29 23 -72 21 -146 -9z"/>
<path d="M5992 2037 c-21 -23 -28 -63 -93 -608 -38 -321 -67 -596 -63 -612 7
-35 42 -53 121 -62 66 -7 95 2 113 35 14 26 151 1179 143 1208 -8 32 -47 49
-128 57 -66 7 -71 5 -93 -18z"/>
<path d="M6975 2030 c-165 -15 -308 -30 -317 -34 -39 -17 -38 -46 13 -648 36
-413 54 -589 64 -605 8 -12 27 -24 42 -27 38 -9 718 50 744 64 29 16 41 57 34
113 -14 95 -24 97 -320 71 -164 -15 -184 -15 -218 0 -48 20 -63 56 -73 167 -6
81 -5 86 20 116 14 17 38 35 53 41 16 6 107 18 203 26 171 14 175 15 199 42
20 25 23 35 18 83 -5 44 -12 61 -32 79 -31 26 -45 26 -245 8 -80 -7 -152 -11
-160 -9 -57 18 -70 27 -84 64 -19 47 -21 144 -3 179 21 42 60 52 274 70 221
20 249 28 255 77 6 54 -9 116 -32 135 -29 23 -60 23 -435 -12z"/>
</g>
</svg>
